<?xml version="1.0" encoding="UTF-8" standalone="no"?>
<svg
   xmlns:dc="http://purl.org/dc/elements/1.1/"
   xmlns:cc="http://creativecommons.org/ns#"
   xmlns:rdf="http://www.w3.org/1999/02/22-rdf-syntax-ns#"
   xmlns:svg="http://www.w3.org/2000/svg"
   xmlns="http://www.w3.org/2000/svg"
   xmlns:sodipodi="http://sodipodi.sourceforge.net/DTD/sodipodi-0.dtd"
   xmlns:inkscape="http://www.inkscape.org/namespaces/inkscape"
   width="210mm"
   height="297mm"
   viewBox="0 0 210 297"
   version="1.1"
   id="svg8"
   inkscape:version="1.0.2-2 (e86c870879, 2021-01-15)"
   sodipodi:docname="logoversao1-1.svg">
  <defs
     id="defs2">
    <rect
       x="-361.3484"
       y="191.36498"
       width="327.1379"
       height="101.56242"
       id="rect1018" />
  </defs>
  <sodipodi:namedview
     id="base"
     pagecolor="#ffffff"
     bordercolor="#666666"
     borderopacity="1.0"
     inkscape:pageopacity="0.0"
     inkscape:pageshadow="2"
     inkscape:zoom="0.35"
     inkscape:cx="1039.1354"
     inkscape:cy="607.51653"
     inkscape:document-units="mm"
     inkscape:current-layer="layer1"
     inkscape:document-rotation="0"
     showgrid="false"
     inkscape:snap-bbox="true"
     inkscape:snap-bbox-midpoints="true"
     inkscape:snap-bbox-edge-midpoints="true"
     inkscape:window-width="1920"
     inkscape:window-height="996"
     inkscape:window-x="1912"
     inkscape:window-y="-8"
     inkscape:window-maximized="1" />
  <metadata
     id="metadata5">
    <rdf:RDF>
      <cc:Work
         rdf:about="">
        <dc:format>image/svg+xml</dc:format>
        <dc:type
           rdf:resource="http://purl.org/dc/dcmitype/StillImage" />
        <dc:title></dc:title>
      </cc:Work>
    </rdf:RDF>
  </metadata>
  <g
     inkscape:label="Layer 1"
     inkscape:groupmode="layer"
     id="layer1">
    <rect
       style="fill:#fff159;fill-opacity:1;stroke:none;stroke-width:1.517;stroke-miterlimit:4;stroke-dasharray:none;stroke-opacity:1"
       id="rect2170"
       width="34.395832"
       height="98.651787"
       x="-385.35492"
       y="14.664376"
       rx="4.7246909"
       ry="8.8223457" />
    <rect
       style="fill:#fff159;fill-opacity:1;stroke:none;stroke-width:1.517;stroke-miterlimit:4;stroke-dasharray:none;stroke-opacity:1"
       id="rect2170-3"
       width="34.395832"
       height="98.651787"
       x="14.664376"
       y="286.70312"
       rx="4.7246909"
       ry="8.8223457"
       transform="rotate(90)" />
    <rect
       style="fill:#fff159;fill-opacity:1;stroke:none;stroke-width:1.517;stroke-miterlimit:4;stroke-dasharray:none;stroke-opacity:1"
       id="rect2170-3-5"
       width="34.395832"
       height="98.651787"
       x="14.664376"
       y="237.37726"
       rx="4.7246909"
       ry="8.8223457"
       transform="rotate(90)"
       inkscape:transform-center-x="-98.27381"
       inkscape:transform-center-y="9.827381" />
    <rect
       style="fill:#fff159;fill-opacity:1;stroke:none;stroke-width:1.517;stroke-miterlimit:4;stroke-dasharray:none;stroke-opacity:1"
       id="rect2170-3-2"
       width="34.395832"
       height="98.651787"
       x="78.920326"
       y="286.70312"
       rx="4.7246909"
       ry="8.8223457"
       transform="rotate(90)" />
    <rect
       style="fill:#fff159;fill-opacity:1;stroke:none;stroke-width:1.517;stroke-miterlimit:4;stroke-dasharray:none;stroke-opacity:1"
       id="rect2170-3-7"
       width="34.395832"
       height="98.651787"
       x="78.920326"
       y="237.3772"
       rx="4.7246909"
       ry="8.8223457"
       transform="rotate(90)" />
    <rect
       style="fill:#fff159;fill-opacity:1;stroke:none;stroke-width:1.517;stroke-miterlimit:4;stroke-dasharray:none;stroke-opacity:1"
       id="rect2170-3-24"
       width="34.395832"
       height="98.651787"
       x="237.3772"
       y="-177.57211"
       rx="4.7246909"
       ry="8.8223457"
       transform="scale(-1)" />
    <rect
       style="fill:#fff159;fill-opacity:1;stroke:none;stroke-width:1.517;stroke-miterlimit:4;stroke-dasharray:none;stroke-opacity:1"
       id="rect2170-3-24-85"
       width="34.395832"
       height="98.651787"
       x="-177.57211"
       y="-336.02899"
       rx="4.7246909"
       ry="8.8223457"
       transform="rotate(-90)" />
    <rect
       style="fill:#fff159;fill-opacity:1;stroke:none;stroke-width:1.517;stroke-miterlimit:4;stroke-dasharray:none;stroke-opacity:1"
       id="rect2170-3-24-85-8"
       width="34.395832"
       height="98.651787"
       x="-177.57211"
       y="-385.35489"
       rx="4.7246909"
       ry="8.8223457"
       transform="rotate(-90)" />
    <rect
       style="fill:#fff159;fill-opacity:1;stroke:none;stroke-width:1.517;stroke-miterlimit:4;stroke-dasharray:none;stroke-opacity:1"
       id="rect2170-3-24-85-6"
       width="34.395832"
       height="98.651787"
       x="-113.31618"
       y="-237.3772"
       rx="4.7246909"
       ry="8.8223457"
       transform="rotate(-90)" />
    <rect
       style="fill:#fff159;fill-opacity:1;stroke:none;stroke-width:1.517;stroke-miterlimit:4;stroke-dasharray:none;stroke-opacity:1"
       id="rect2170-3-24-85-4"
       width="34.395832"
       height="98.651787"
       x="-113.31618"
       y="-188.05127"
       rx="4.7246909"
       ry="8.8223457"
       transform="rotate(-90)" />
    <rect
       style="fill:#fff159;fill-opacity:1;stroke:none;stroke-width:1.517;stroke-miterlimit:4;stroke-dasharray:none;stroke-opacity:1"
       id="rect2170-3-24-85-2"
       width="34.395832"
       height="98.651787"
       x="-123.79535"
       y="78.920357"
       rx="4.7246909"
       ry="8.8223457" />
    <rect
       style="fill:#fff159;fill-opacity:1;stroke:none;stroke-width:1.517;stroke-miterlimit:4;stroke-dasharray:none;stroke-opacity:1"
       id="rect2170-3-24-85-2-7"
       width="34.395832"
       height="98.651787"
       x="160.37424"
       y="138.72542"
       rx="4.7246909"
       ry="8.8223457"
       transform="rotate(90)" />
    <rect
       style="fill:#fff159;fill-opacity:1;stroke:none;stroke-width:1.517;stroke-miterlimit:4;stroke-dasharray:none;stroke-opacity:1"
       id="rect2170-3-24-85-2-7-9"
       width="34.395832"
       height="98.651787"
       x="160.37424"
       y="89.399521"
       rx="4.7246909"
       ry="8.8223457"
       transform="rotate(90)" />
    <rect
       style="fill:#fff159;fill-opacity:1;stroke:none;stroke-width:1.517;stroke-miterlimit:4;stroke-dasharray:none;stroke-opacity:1"
       id="rect2170-3-24-85-2-6-8"
       width="34.395832"
       height="98.651787"
       x="-237.3772"
       y="78.920357"
       rx="4.7246909"
       ry="8.8223457" />
    <rect
       style="fill:#fff159;fill-opacity:1;stroke:none;stroke-width:1.517;stroke-miterlimit:4;stroke-dasharray:none;stroke-opacity:1"
       id="rect2170-3-24-85-2-6-4"
       width="34.395832"
       height="98.651787"
       x="-237.3772"
       y="143.17628"
       rx="4.7246909"
       ry="8.8223457" />
    <text
       xml:space="preserve"
       id="text1016"
       style="font-size:50.8px;font-family:Comfortaa;-inkscape-font-specification:Comfortaa;white-space:pre;shape-inside:url(#rect1018);fill:#3c437a;fill-opacity:1;stroke:none;stroke-width:2.317;stroke-miterlimit:4;stroke-dasharray:none;stroke-opacity:1;"
       transform="matrix(0.57724045,0,0,0.64155012,222.18584,57.491322)"><tspan
         x="-361.34766"
         y="237.85407"><tspan
           style="font-size:50.8px">speed point</tspan></tspan></text>
    <path
       style="fill:#fff159;fill-opacity:1;stroke:#3c437a;stroke-width:1.68414;stroke-miterlimit:4;stroke-dasharray:none;stroke-opacity:1"
       d="m 19.437692,47.951321 h 48.245279 31.523262 c 0,0 5.619847,0.0718 5.579907,3.42731 -0.0399,3.35553 0,14.10122 0,14.10122 0,0 -0.0799,2.87617 -4.59389,2.95606 -4.513986,0.0799 -14.780322,0 -14.780322,0 H 38.99375 c 0,0 -2.177097,-0.21971 -2.197077,1.1984 -0.01997,1.41812 0,4.17444 0,4.17444 v 11.08524 c 0,0 -0.199736,1.43809 1.098539,1.45806 1.298274,0.02 8.049272,0 8.049272,0 h 42.86293 13.082576 c 0,0 2.77631,1.39814 2.75633,2.69641 -0.02,1.29827 0,3.23569 0,3.23569 l 0.31958,-3.97471 c 0,0 1.09853,-1.95739 2.49667,-1.95739 1.39814,0 6.09189,0 6.09189,0 h 15.25968 45.75906 14.88018 0.73902 c 0,0 2.97603,0.19973 2.97603,3.43542 0,3.2357 0,13.881519 0,13.881519 v 21.91083 13.84156 13.02265 c 0,0 -0.02,3.15581 -4.3542,3.17577 -4.33423,0.02 -20.47273,0 -20.47273,0 h -41.70446 c 0,0 -1.3582,-0.2197 -1.37817,0.85886 -0.02,1.07857 0,3.97471 0,3.97471 v 12.42345 5.85221 c 0,0 -0.17976,5.0333 -2.89614,5.05327 -2.71639,0.02 -5.19309,0 -5.19309,0 h -9.52731 c 0,0 -2.91612,-0.25965 -2.93609,-4.55393 -0.02,-4.29428 0,-9.54729 0,-9.54729 v -29.26103 c 0,0 -0.35952,4.9534 -2.69641,4.93343 -2.336891,-0.02 -22.94943,0 -22.94943,0 H 21.916499 c 0,0 -5.772317,0.11984 -5.752337,-3.27564 0.01997,-3.39547 0,-13.80162 0,-13.80162 v -0.8988 c 0,0 -0.05992,-2.53662 4.993336,-2.59654 5.053277,-0.0599 12.703096,0 12.703096,0 h 48.93483 c 0,0 1.358191,0.02 1.338211,-1.03862 -0.01997,-1.05859 0,-7.68976 0,-7.68976 v -8.04928 c 0,0 0.05992,-1.09854 -1.358191,-1.07857 -1.418113,0.02 -6.331573,0 -6.331573,0 H 46.284039 19.140201 c 0,0 -2.956077,-0.6791 -2.956077,-3.11585 0,-2.43676 0,-9.866859 0,-9.866859 v -43.26238 c 0,0 0.275424,-2.74011 3.253568,-2.72824 z"
       id="path895" />
    <ellipse
       style="fill:#3c4359;fill-opacity:1;stroke:#3c437a;stroke-width:1.78259;stroke-miterlimit:4;stroke-dasharray:none;stroke-opacity:1"
       id="path917"
       cx="150.78462"
       cy="120.99718"
       rx="18.480579"
       ry="13.961117" />
  </g>
</svg>
